<svg preserveAspectRatio="none" width="100%" height="100%" overflow="visible" style="display: block;" viewBox="0 0 109.211 113.216" fill="none" xmlns="http://www.w3.org/2000/svg">
<g id="Group 1739334512">
<path id="Union" d="M73.5489 5.36947L72.9314 0.236481L72.9313 0.236492L73.5489 5.36947ZM104.041 63.7757L109.211 63.7758V63.7757H104.041ZM73.5489 90.8187L72.9311 95.9516L72.9313 95.9517L73.5489 90.8187ZM57.8643 88.931L58.4821 83.798L55.9996 83.4993L54.2241 85.2598L57.8643 88.931ZM39.1309 107.506L42.7711 111.177L42.7711 111.177L39.1309 107.506ZM36.0372 106.227L41.2071 106.199V106.199L36.0372 106.227ZM35.9278 86.2923L41.0977 86.264L41.0727 81.7038L36.5451 81.1593L35.9278 86.2923ZM29.1554 85.4779L28.5378 90.6108L28.5381 90.6109L29.1554 85.4779ZM5.17 37.7542L0 37.7542V37.7542H5.17ZM29.1554 10.7113L29.7729 15.8442L29.773 15.8442L29.1554 10.7113ZM73.5489 5.36947L74.1665 10.5025C87.305 8.92176 98.8711 19.1799 98.8711 32.4134H104.041H109.211C109.211 12.9798 92.226 -2.08486 72.9314 0.236481L73.5489 5.36947ZM104.041 32.4134H98.8711V63.7757H104.041H109.211V32.4134H104.041ZM104.041 63.7757L98.8711 63.7757C98.871 77.0089 87.3051 87.2665 74.1665 85.6857L73.5489 90.8187L72.9313 95.9517C92.2258 98.273 109.211 83.2094 109.211 63.7758L104.041 63.7757ZM73.5489 90.8187L74.1667 85.6857L58.4821 83.798L57.8643 88.931L57.2466 94.0639L72.9311 95.9516L73.5489 90.8187ZM57.8643 88.931L54.2241 85.2598L35.4907 103.835L39.1309 107.506L42.7711 111.177L61.5045 92.6022L57.8643 88.931ZM39.1309 107.506L35.4908 103.835C37.6014 101.742 41.1909 103.226 41.2071 106.199L36.0372 106.227L30.8673 106.255C30.9009 112.446 38.3749 115.536 42.7711 111.177L39.1309 107.506ZM36.0372 106.227L41.2071 106.199L41.0977 86.264L35.9278 86.2923L30.7579 86.3207L30.8673 106.255L36.0372 106.227ZM35.9278 86.2923L36.5451 81.1593L29.7726 80.3448L29.1554 85.4779L28.5381 90.6109L35.3105 91.4253L35.9278 86.2923ZM29.1554 85.4779L29.7729 80.3449C18.6843 79.0107 10.34 69.6024 10.34 58.4339H5.17H0C0 74.8354 12.2538 88.6516 28.5378 90.6108L29.1554 85.4779ZM5.17 58.4339H10.34V37.7542H5.17H0V58.4339H5.17ZM5.17 37.7542L10.34 37.7543C10.3401 26.5861 18.6842 17.1784 29.7729 15.8442L29.1554 10.7113L28.5378 5.57828C12.2541 7.53746 0.000209808 21.3527 0 37.7542L5.17 37.7542ZM29.1554 10.7113L29.773 15.8442L74.1666 10.5024L73.5489 5.36947L72.9313 0.236492L28.5377 5.57829L29.1554 10.7113Z" fill="var(--stroke-0, #FFFAFA)"/>
<ellipse id="Ellipse 750" cx="29.3804" cy="49.8015" rx="6.08438" ry="7.859" fill="var(--fill-0, #FFFAFA)"/>
<ellipse id="Ellipse 751" cx="53.0843" cy="50.0324" rx="6.3379" ry="7.859" fill="var(--fill-0, #FFFAFA)"/>
<ellipse id="Ellipse 752" cx="77.4222" cy="50.0324" rx="6.3379" ry="7.859" fill="var(--fill-0, #FFFAFA)"/>
</g>
</svg>
