<svg preserveAspectRatio="none" width="100%" height="100%" overflow="visible" style="display: block;" viewBox="0 0 122.4 139.398" fill="none" xmlns="http://www.w3.org/2000/svg">
<g id="Group 1739334485">
<path id="Ellipse 683" d="M96.654 33.5712C96.8334 33.7091 97.5811 34.519 97.4156 37.5143C97.2588 40.3521 96.3026 44.2312 94.4477 48.963C90.7583 58.3746 83.8614 70.2908 74.5706 82.378C65.2799 94.4649 55.5387 104.194 47.3928 110.18C43.2972 113.19 39.7946 115.111 37.0926 115.993C34.2403 116.923 33.2651 116.41 33.0857 116.272C32.9059 116.133 32.1592 115.322 32.3247 112.328C32.4816 109.49 33.4378 105.611 35.2926 100.879C38.982 91.4677 45.8793 79.5523 55.1699 67.4655C64.4608 55.3784 74.2015 45.648 82.3475 39.6621C86.4432 36.6526 89.9457 34.7309 92.6477 33.8494C95.4988 32.9194 96.474 33.4331 96.654 33.5712Z" stroke="var(--stroke-0, white)" stroke-width="8.05263"/>
<path id="Ellipse 684" d="M111.717 87.2311C110.442 92.1964 104.736 96.7136 94.0782 98.8837C83.7205 100.993 69.9852 100.532 55.4173 96.7933C40.8496 93.0541 28.5913 86.8423 20.5297 80.0057C12.2346 72.9709 9.40853 66.2636 10.683 61.2984C11.9575 56.3331 17.6646 51.8161 28.3222 49.646C38.6799 47.5372 52.4146 47.9971 66.9823 51.7362C81.5502 55.4754 93.8092 61.6873 101.871 68.5241C110.166 75.5588 112.991 82.2658 111.717 87.2311Z" stroke="var(--stroke-0, white)" stroke-width="8.05263"/>
<path id="Ellipse 685" d="M85.1011 126.052C83.2871 126.803 80.7625 126.752 77.3347 125.151C73.9038 123.547 69.9743 120.558 65.8222 116.205C57.537 107.519 48.9636 94.0343 42.2419 77.7853C35.5202 61.5363 32.0622 45.9359 31.7898 33.9349C31.6533 27.9207 32.3225 23.029 33.6183 19.4705C34.9129 15.9154 36.6643 14.0963 38.4783 13.3459C40.2923 12.5955 42.8169 12.6457 46.2447 14.2474C49.6757 15.8505 53.6051 18.8399 57.7572 23.193C66.0425 31.8793 74.6158 45.3637 81.3375 61.6127C88.0592 77.8617 91.5173 93.4622 91.7897 105.463C91.9261 111.477 91.2569 116.369 89.9611 119.927C88.6665 123.483 86.9152 125.302 85.1011 126.052Z" stroke="var(--stroke-0, white)" stroke-width="8.05263"/>
</g>
</svg>
