<svg preserveAspectRatio="none" width="100%" height="100%" overflow="visible" style="display: block;" viewBox="0 0 123.102 123.805" fill="none" xmlns="http://www.w3.org/2000/svg">
<g id="Group 1739334381">
<path id="Union" d="M115.23 25.9416C117.136 27.8473 116.971 30.9839 114.877 32.6799L83.9696 57.7066C82.2238 59.1397 80.6071 60.4887 79.0853 61.7861C77.0511 63.5202 77.0161 66.6306 78.9919 68.431C80.6726 69.9624 82.4619 71.5728 84.4122 73.3135C84.4189 73.3195 84.4193 73.3298 84.413 73.3362C84.4066 73.3428 84.4072 73.3534 84.4142 73.3593L118.518 101.715C120.572 103.423 120.714 106.526 118.825 108.415L108.933 118.308C107.037 120.204 103.921 120.053 102.217 117.983L74.123 83.846C72.1035 81.7497 70.2529 79.8455 68.4957 78.0599C66.7138 76.2492 63.7908 76.2796 62.0664 78.1451C60.5359 79.8008 58.9374 81.57 57.2195 83.501C57.2162 83.5048 57.2103 83.5049 57.2068 83.5013C57.2031 83.4975 57.197 83.4978 57.1938 83.5019L33.692 112.514C31.9958 114.608 28.8597 114.772 26.9543 112.867L16.8293 102.742C14.9007 100.813 15.096 97.6314 17.2461 95.9531L46.8878 72.8162C46.9022 72.805 46.9037 72.7837 46.891 72.7705C46.8788 72.7578 46.8798 72.7373 46.8932 72.7257C48.6064 71.2505 50.1983 69.8669 51.7019 68.5426C53.6942 66.7878 53.7198 63.7041 51.7676 61.9049C50.528 60.7624 49.2269 59.571 47.8449 58.3116C47.8362 58.3037 47.8228 58.304 47.8146 58.3123C47.8069 58.3199 47.7948 58.3209 47.7861 58.3145L21.3305 38.8551C19.0913 37.2081 18.8447 33.9536 20.8103 31.988L30.8274 21.9709C32.7333 20.0649 35.8706 20.2298 37.5663 22.325L58.233 47.8602C58.2416 47.8708 58.2408 47.8861 58.2311 47.8957C58.221 47.9058 58.2208 47.9223 58.2306 47.9328C59.6762 49.4658 61.0367 50.8954 62.3415 52.2504C64.0961 54.0727 67.0045 54.0761 68.7564 52.2512C70.1494 50.8002 71.5986 49.2653 73.14 47.6113C73.1484 47.6022 73.1482 47.5881 73.1395 47.5793C73.1312 47.5711 73.1305 47.5579 73.1378 47.5487L98.3067 16.142C99.9978 14.0318 103.147 13.8587 105.059 15.7709L115.23 25.9416Z" fill="var(--fill-0, white)"/>
<path id="Union_2" d="M75.1076 41.992C75.0207 43.2832 75.489 44.5501 76.3947 45.4744L81.2032 50.3812L87.6855 56.7335C87.7021 56.7498 87.7113 56.7721 87.7111 56.7953C87.7106 56.8457 87.7537 56.8856 87.8039 56.8811L118.161 54.1925C120.816 53.9573 123.102 56.0492 123.102 58.7145V73.3164C123.102 75.9717 120.833 78.0602 118.187 77.8406L89.4705 75.4583C88.1563 75.3492 86.8597 75.817 85.9178 76.74L81.2032 81.36L76.4447 86.2159C75.5234 87.1561 75.0555 88.4498 75.1624 89.7618L77.5349 118.897C77.7502 121.541 75.6626 123.805 73.0101 123.805H58.3923C55.73 123.805 53.6392 121.525 53.8696 118.873L56.3854 89.911C56.5001 88.5911 56.0325 87.287 55.1052 86.3407L50.2245 81.36L45.4776 76.7084C44.5533 75.8026 43.2864 75.3344 41.9953 75.4213L4.84471 77.9223C2.22338 78.0987 9.43244e-06 76.02 9.43244e-06 73.3928V58.6321C9.43244e-06 55.9969 2.23622 53.9154 4.86466 54.1039L43.6226 56.8846C43.6737 56.8883 43.7171 56.8475 43.7166 56.7963C43.7164 56.7724 43.7259 56.7495 43.7429 56.7328L50.2245 50.3812L55.1585 45.3461C56.0691 44.4168 56.5373 43.1415 56.4441 41.8437L53.7902 4.86475C53.6016 2.23628 55.6831 0 58.3183 0H73.0789C75.7062 0 77.7849 2.22337 77.6084 4.84471L75.1076 41.992ZM58.8705 62.1853C57.0976 63.9582 57.0976 66.8326 58.8705 68.6055L62.4989 72.2339C64.2718 74.0068 67.1462 74.0068 68.9191 72.2339L72.5475 68.6055C74.3204 66.8326 74.3204 63.9582 72.5475 62.1853L68.9191 58.5569C67.1462 56.784 64.2718 56.784 62.4989 58.5569L58.8705 62.1853Z" fill="var(--fill-0, white)"/>
<path id="Rectangle 119" d="M63.5984 55.5081C65.6261 54.0334 68.4653 54.4817 69.94 56.5093L75.4396 64.0712C76.9144 66.0989 76.4661 68.9381 74.4384 70.4128L66.8766 75.9124C64.8489 77.3871 62.0096 76.9389 60.5349 74.9112L55.0353 67.3494C53.5606 65.3217 54.0089 62.4824 56.0366 61.0077L63.5984 55.5081Z" fill="var(--fill-0, #FFA011)"/>
</g>
</svg>
